<svg width="24" height="24" viewBox="0 0 24 24" fill="none" xmlns="http://www.w3.org/2000/svg">
<circle cx="12" cy="12" r="11.7188" fill="#6D5000"/>
<path d="M13.5625 0.28125H10.4375V1.92188H13.5625V0.28125Z" fill="#6D5000"/>
<path d="M13.5625 22.1562H10.4375V23.7188H13.5625V22.1562Z" fill="#6D5000"/>
<circle cx="12" cy="12" r="11.7188" fill="#FDC93A"/>
<circle cx="12" cy="12" r="9.375" fill="#6D5000"/>
<path d="M15.75 14.373C15.75 14.8813 15.6209 15.359 15.3626 15.8063C15.1147 16.2536 14.7428 16.6297 14.2469 16.9347C13.7614 17.2397 13.1829 17.4226 12.5114 17.4836V18.7188H11.5041V17.4836C10.5331 17.3921 9.74793 17.0923 9.14876 16.584C8.54959 16.0757 8.25 15.4048 8.25 14.5712H10.1405C10.1715 14.9677 10.3006 15.2981 10.5279 15.5624C10.7552 15.8165 11.0806 15.9791 11.5041 16.0503V12.6957C10.812 12.5229 10.249 12.3501 9.81508 12.1772C9.3812 11.9943 9.0093 11.7096 8.69938 11.3233C8.39979 10.937 8.25 10.4084 8.25 9.73751C8.25 8.89378 8.54959 8.19744 9.14876 7.6485C9.74793 7.0894 10.5331 6.7641 11.5041 6.67261V5.4375H12.5114V6.67261C13.4205 6.75393 14.1488 7.03857 14.6963 7.52651C15.2541 8.00429 15.5692 8.66505 15.6415 9.50879H13.751C13.72 9.19366 13.5961 8.91411 13.3791 8.67013C13.1622 8.416 12.8729 8.24318 12.5114 8.15169V11.4453C13.2035 11.608 13.7665 11.7808 14.2004 11.9638C14.6343 12.1366 15.001 12.4161 15.3006 12.8024C15.6002 13.1785 15.75 13.7021 15.75 14.373ZM10.0475 9.64602C10.0475 10.0628 10.1715 10.3881 10.4194 10.6219C10.6777 10.8557 11.0393 11.0438 11.5041 11.1861V8.10595C11.0599 8.15678 10.7035 8.31434 10.4349 8.57865C10.1767 8.84295 10.0475 9.19874 10.0475 9.64602ZM12.5114 16.0503C12.9659 15.9791 13.3223 15.8012 13.5806 15.5166C13.8388 15.2218 13.968 14.8711 13.968 14.4645C13.968 14.0579 13.8388 13.7427 13.5806 13.5191C13.3326 13.2853 12.9762 13.0972 12.5114 12.9549V16.0503Z" fill="#FCAE1D"/>
</svg>
