<svg width="26" height="28" viewBox="0 0 26 28" fill="none" xmlns="http://www.w3.org/2000/svg">
<path d="M15.768 9.51L10.548 0.93C10.208 0.35 9.59801 0 8.92801 0H2.33801C0.888013 0 -0.0219871 1.56 0.688013 2.82C2.00765 5.15472 3.87016 7.13729 6.11801 8.6C6.87801 9.19 7.81801 9.51 8.78801 9.51H15.768Z" fill="#0074BA"/>
<path d="M23.658 0H17.068C16.398 0 15.788 0.35 15.448 0.93L10.228 9.51H17.218C18.188 9.51 19.118 9.19 19.888 8.6C22.138 7.14 23.998 5.16 25.318 2.82C26.018 1.56 25.108 0 23.658 0Z" fill="#00A6ED"/>
<path d="M12.99 28C18.535 28 23.03 23.393 23.03 17.71C23.03 12.027 18.535 7.42001 12.99 7.42001C7.44501 7.42001 2.95001 12.027 2.95001 17.71C2.95001 23.393 7.44501 28 12.99 28Z" fill="#FFB02E"/>
<path d="M11.076 14.041C11.076 13.7758 11.1814 13.5214 11.3689 13.3339C11.5564 13.1464 11.8108 13.041 12.076 13.041H13C13.2652 13.041 13.5196 13.1464 13.7071 13.3339C13.8947 13.5214 14 13.7758 14 14.041V21C14 21.2652 13.8947 21.5196 13.7071 21.7071C13.5196 21.8947 13.2652 22 13 22C12.7348 22 12.4804 21.8947 12.2929 21.7071C12.1054 21.5196 12 21.2652 12 21V15.038C11.7487 15.0189 11.5139 14.9055 11.3426 14.7207C11.1712 14.5358 11.076 14.2931 11.076 14.041Z" fill="#6D4534"/>
<path d="M13 26.76C10.64 26.76 8.42002 25.82 6.76002 24.11C5.0895 22.3997 4.15913 20.1007 4.17002 17.71C4.17002 15.29 5.09002 13.02 6.76002 11.31C7.57031 10.4726 8.54073 9.80671 9.61358 9.35195C10.6864 8.89719 11.8398 8.66284 13.005 8.66284C14.1703 8.66284 15.3236 8.89719 16.3965 9.35195C17.4693 9.80671 18.4397 10.4726 19.25 11.31C22.69 14.84 22.69 20.58 19.25 24.11C17.57 25.82 15.35 26.76 13 26.76ZM12.99 9.88999C11.04 9.88999 9.08002 10.65 7.60002 12.18C6.16013 13.6595 5.35925 15.6455 5.37002 17.71C5.37002 19.8 6.16002 21.76 7.60002 23.24C8.29821 23.9646 9.13544 24.5409 10.0616 24.9344C10.9877 25.3279 11.9837 25.5305 12.99 25.53C15.03 25.53 16.94 24.72 18.38 23.24C21.35 20.19 21.35 15.23 18.38 12.18C17.6825 11.4544 16.8454 10.8775 15.9191 10.484C14.9928 10.0904 13.9965 9.88837 12.99 9.88999Z" fill="#FCD53F"/>
</svg>
