<svg width="390" height="722" viewBox="0 0 390 722" fill="none" xmlns="http://www.w3.org/2000/svg">
<rect x="-0.853638" y="-0.00367737" width="390.665" height="721.431" transform="rotate(0.0256446 -0.853638 -0.00367737)" fill="#24144C"/>
<mask id="mask0_2119_5419" style="mask-type:alpha" maskUnits="userSpaceOnUse" x="-2" y="-1" width="392" height="723">
<rect x="-0.853638" y="-0.00367737" width="390.665" height="721.431" transform="rotate(0.0256446 -0.853638 -0.00367737)" fill="#24144C"/>
</mask>
<g mask="url(#mask0_2119_5419)">
<g filter="url(#filter0_f_2119_5419)">
<path fill-rule="evenodd" clip-rule="evenodd" d="M131.074 -343.139C174.185 -347.597 227.928 -455.662 255.426 -360.142C283.491 -262.648 229.359 -129.115 229.145 -2.46301C228.933 123.146 281.388 254.266 254.221 352.691C227.604 449.124 173.056 372.367 130.762 353.972C97.5973 339.549 63.2485 328.178 39.7399 259.41C16.3825 191.084 12.7778 92.6501 8.87994 -2.5616C4.18518 -117.238 -13.4562 -254.916 15.3921 -335.322C44.2049 -415.628 91.0019 -338.995 131.074 -343.139Z" fill="#00B1FF"/>
<path fill-rule="evenodd" clip-rule="evenodd" d="M162.009 593.121C193.008 597.14 222.58 510.227 251.246 544.32C280.757 579.419 304.517 671.692 305.315 763.561C306.098 853.753 268.519 903.148 255.069 984.697C244.291 1050.04 248.782 1127.57 235.227 1188.49C215.859 1275.54 197.509 1409.77 161.646 1404.59C125.162 1399.31 113.661 1255.42 93.4333 1167.98C80.4291 1111.76 75.1787 1048.93 65.2263 987.763C53.239 914.096 28.9552 854.793 29.2306 773.423C29.5487 679.451 37.2528 560.541 66.8083 520.407C97.2664 479.048 128.379 588.761 162.009 593.121Z" fill="#EB69B7"/>
<path fill-rule="evenodd" clip-rule="evenodd" d="M230.794 -357.432C264.026 -376.531 302.366 -379.866 329.078 -319.998C355.61 -260.533 353.738 -147.517 365.096 -56.4288C376.963 38.7355 407.551 128.322 397.02 224.85C386.486 321.398 345.779 355.046 314.906 403.582C288.126 445.684 260.688 475.884 230.416 486.777C195.99 499.164 152.95 542.728 129.059 470.456C104.28 395.498 133.873 268.057 124.973 167.806C117.035 78.3885 73.5315 19.015 81.0086 -70.7811C88.375 -159.249 131.038 -170.915 157.374 -221.317C182.224 -268.873 201.535 -340.617 230.794 -357.432Z" fill="#EB69B7"/>
<path fill-rule="evenodd" clip-rule="evenodd" d="M18.1855 191.265C52.6142 200.428 67.2539 321.794 95.8217 377.747C125.873 436.607 178.992 425.15 188.96 525.75C199.022 627.313 150.231 698.144 137.374 797.139C125.415 889.213 146.724 1029.65 117.128 1078.79C86.4972 1129.66 52.4372 1016.21 17.8254 995.645C-6.84816 980.986 -34.2669 1014.66 -55.6054 976.169C-77.4903 936.69 -83.7465 857.598 -95.436 791.328C-109.778 710.019 -136.419 635.705 -131.564 545.545C-126.567 452.751 -95.9992 393.076 -70.7779 333.407C-43.9194 269.865 -16.419 182.055 18.1855 191.265Z" fill="#333333"/>
<path fill-rule="evenodd" clip-rule="evenodd" d="M321.977 277.541C345.341 271.862 369.992 260.973 390.333 294.442C411.733 329.65 426.375 392.925 433.419 460.898C440.36 527.88 429.503 595.201 428.74 665.085C427.548 774.346 455.82 911.365 427.701 984.984C400.665 1055.77 358.062 954.862 321.678 945.383C290.011 937.133 250.358 1000.09 228.714 933.143C206.094 863.178 236.659 745.08 227.279 653.398C218.358 566.193 168.113 516.89 177.215 429.781C186.237 343.443 232.078 356.711 261.515 325.754C281.652 304.577 300.619 282.733 321.977 277.541Z" fill="#00B1FF"/>
</g>
</g>
<defs>
<filter id="filter0_f_2119_5419" x="-490.365" y="-757.661" width="1288.79" height="2520.61" filterUnits="userSpaceOnUse" color-interpolation-filters="sRGB">
<feFlood flood-opacity="0" result="BackgroundImageFix"/>
<feBlend mode="normal" in="SourceGraphic" in2="BackgroundImageFix" result="shape"/>
<feGaussianBlur stdDeviation="179.109" result="effect1_foregroundBlur_2119_5419"/>
</filter>
</defs>
</svg>
