<svg width="26" height="28" viewBox="0 0 26 28" fill="none" xmlns="http://www.w3.org/2000/svg">
<path d="M15.768 9.51L10.548 0.93C10.208 0.35 9.59801 0 8.92801 0H2.33801C0.888013 0 -0.0219871 1.56 0.688013 2.82C2.00765 5.15472 3.87016 7.13729 6.11801 8.6C6.87801 9.19 7.81801 9.51 8.78801 9.51H15.768Z" fill="#0074BA"/>
<path d="M23.658 0H17.068C16.398 0 15.788 0.35 15.448 0.93L10.228 9.51H17.218C18.188 9.51 19.118 9.19 19.888 8.6C22.138 7.14 23.998 5.16 25.318 2.82C26.018 1.56 25.108 0 23.658 0Z" fill="#00A6ED"/>
<path d="M12.96 28.001C18.505 28.001 23 23.394 23 17.711C23 12.028 18.505 7.42102 12.96 7.42102C7.41501 7.42102 2.92001 12.028 2.92001 17.711C2.92001 23.394 7.41501 28.001 12.96 28.001Z" fill="#BEBEBE"/>
<path d="M12.96 26.761C10.6 26.761 8.38001 25.821 6.72001 24.111C5.04949 22.4007 4.11912 20.1018 4.13001 17.711C4.13001 15.291 5.05001 13.021 6.72001 11.311C7.5303 10.4736 8.50072 9.80775 9.57357 9.35299C10.6464 8.89823 11.7998 8.66388 12.965 8.66388C14.1303 8.66388 15.2836 8.89823 16.3564 9.35299C17.4293 9.80775 18.3997 10.4736 19.21 11.311C22.65 14.841 22.65 20.581 19.21 24.111C17.53 25.821 15.31 26.761 12.96 26.761ZM12.95 9.89103C11 9.89103 9.04001 10.651 7.56001 12.181C6.12012 13.6605 5.31924 15.6466 5.33001 17.711C5.33001 19.801 6.12001 21.761 7.56001 23.241C8.25821 23.9657 9.09544 24.542 10.0216 24.9354C10.9477 25.3289 11.9437 25.5315 12.95 25.531C14.99 25.531 16.9 24.721 18.34 23.241C21.31 20.191 21.31 15.231 18.34 12.181C17.6425 11.4555 16.8054 10.8786 15.8791 10.485C14.9528 10.0915 13.9564 9.88941 12.95 9.89103Z" fill="#E6E6E6"/>
<path d="M14.838 21.95H10.868C10.6768 21.9505 10.4894 21.8961 10.3281 21.7933C10.1668 21.6905 10.0384 21.5436 9.95802 21.37C9.87524 21.1979 9.84348 21.0056 9.86652 20.816C9.88956 20.6264 9.96643 20.4473 10.088 20.3L13.388 16.25C13.648 15.93 13.528 15.59 13.488 15.49C13.4411 15.3739 13.3611 15.2741 13.258 15.203C13.1549 15.1319 13.0332 15.0926 12.908 15.09H12.858C12.538 15.09 12.248 15.24 12.058 15.5C11.738 15.95 11.108 16.06 10.648 15.74C10.5395 15.6633 10.4473 15.5659 10.3765 15.4535C10.3057 15.3411 10.2577 15.2158 10.2354 15.0848C10.2132 14.9538 10.2169 14.8197 10.2465 14.6902C10.2761 14.5607 10.331 14.4383 10.408 14.33C10.968 13.54 11.878 13.07 12.848 13.07H12.978C13.998 13.12 14.888 13.73 15.308 14.66C15.738 15.62 15.598 16.71 14.938 17.52L12.988 19.92H14.828C15.388 19.92 15.838 20.37 15.838 20.93C15.838 21.49 15.398 21.95 14.838 21.95Z" fill="#636363"/>
</svg>
