<svg width="28" height="28" viewBox="0 0 28 28" fill="none" xmlns="http://www.w3.org/2000/svg">
<path d="M1 14.0204C1 21.2113 6.82018 27.0406 13.9999 27.0406C21.1797 27.0406 27.0002 21.2113 27.0002 14.0204C27.0002 6.82934 21.1797 1 13.9999 1C6.82018 1 1 6.82933 1 14.0204Z" fill="#0C0C4F" stroke="url(#paint0_linear_2123_5634)" stroke-width="0.393942"/>
<path fill-rule="evenodd" clip-rule="evenodd" d="M8.11696 10.8731L8.4462 9.85428C8.51312 9.64707 8.6764 9.48583 8.88405 9.42225L9.90621 9.10742C10.0477 9.06414 10.0488 8.86421 9.9085 8.81864L8.89093 8.48886C8.68444 8.42185 8.52344 8.2583 8.45958 8.05034L8.14562 7.02657C8.10242 6.88524 7.90281 6.8837 7.85729 7.02466L7.52805 8.04344C7.46113 8.25027 7.29785 8.4115 7.0902 8.47547L6.06804 8.78991C5.92656 8.83357 5.92502 9.03312 6.06574 9.07869L7.08331 9.40845C7.28981 9.47548 7.45081 9.63941 7.51466 9.84738L7.82862 10.8708C7.87183 11.0125 8.07144 11.014 8.11696 10.8731Z" fill="#FAFAFA"/>
<path fill-rule="evenodd" clip-rule="evenodd" d="M24.2732 10.2801C23.852 9.80816 23.1942 9.54242 22.5549 9.43345C21.9104 9.3288 21.2346 9.33851 20.5984 9.45172C19.3111 9.66982 18.1416 10.2037 17.1215 10.8623C16.5918 11.1855 16.1401 11.5596 15.6721 11.9405C15.4466 12.1331 15.241 12.3383 15.0269 12.5405L14.4418 13.1235C13.8062 13.789 13.1796 14.3952 12.5733 14.8976C11.9646 15.3978 11.3955 15.7776 10.8347 16.0429C10.2742 16.3095 9.67454 16.4663 8.89286 16.4914C8.11806 16.5188 7.20136 16.3787 6.22082 16.1475C5.235 15.9174 4.19979 15.5893 3.04297 15.307C3.44661 16.4286 4.05444 17.4197 4.83484 18.3257C5.62438 19.216 6.6103 20.0275 7.87681 20.5611C9.12504 21.1066 10.6937 21.3025 12.1604 21.007C13.631 20.7235 14.9215 20.0418 15.9646 19.2537C17.0105 18.4574 17.8566 17.5503 18.5699 16.6072C18.7668 16.3467 18.8709 16.2009 19.0134 15.9972L19.4073 15.4129C19.681 15.0515 19.9302 14.64 20.2012 14.2819C20.7323 13.5319 21.2559 12.7828 21.8643 12.0926C22.1706 11.7426 22.4936 11.4077 22.8748 11.0859C23.0651 10.9289 23.2704 10.7752 23.498 10.6367C23.7289 10.4874 23.9729 10.3705 24.2732 10.2801Z" fill="url(#paint1_linear_2123_5634)"/>
<path fill-rule="evenodd" clip-rule="evenodd" d="M24.2732 10.2801C23.8206 9.13596 22.979 8.17287 21.8495 7.4622C20.7266 6.75933 19.1672 6.40064 17.6221 6.7064C16.8586 6.85427 16.119 7.13897 15.47 7.51808C14.8239 7.89571 14.2449 8.35027 13.7437 8.83793C13.4935 9.08258 13.2664 9.33778 13.0408 9.59444L12.456 10.3412L11.5527 11.5433C10.4012 13.0899 9.16124 14.9025 7.12633 15.4396C5.12866 15.9668 4.26223 15.4999 3.04297 15.307C3.26591 15.8834 3.54205 16.4433 3.91644 16.9358C4.28384 17.4382 4.71779 17.9102 5.25731 18.3147C5.52996 18.509 5.81781 18.7007 6.13753 18.8634C6.45578 19.0205 6.79898 19.1588 7.16532 19.263C7.894 19.463 8.71437 19.533 9.50868 19.4255C10.3034 19.3193 11.0629 19.067 11.7269 18.732C12.3957 18.4002 12.9784 17.9961 13.4986 17.5696C14.5328 16.7094 15.3372 15.759 16.0167 14.7982C16.3585 14.3179 16.6688 13.8285 16.9557 13.3389L17.2934 12.7561C17.3966 12.5858 17.5011 12.4143 17.6072 12.2547C18.035 11.6133 18.4536 11.0991 18.9619 10.713C19.4632 10.3171 20.1613 10.0245 21.0941 9.95651C22.023 9.88772 23.0955 10.0148 24.2732 10.2801Z" fill="#FAFAFA"/>
<path fill-rule="evenodd" clip-rule="evenodd" d="M19.2473 19.7861C19.2473 20.6264 19.9279 21.308 20.7668 21.308C21.6059 21.308 22.2855 20.6264 22.2855 19.7861C22.2855 18.9459 21.6059 18.2643 20.7668 18.2643C19.9279 18.2643 19.2473 18.9459 19.2473 19.7861Z" fill="url(#paint2_linear_2123_5634)"/>
<defs>
<linearGradient id="paint0_linear_2123_5634" x1="25.9028" y1="7.51027" x2="1.69108" y2="11.9958" gradientUnits="userSpaceOnUse">
<stop stop-color="#EC796B"/>
<stop offset="1" stop-color="#E175B1"/>
</linearGradient>
<linearGradient id="paint1_linear_2123_5634" x1="24.1598" y1="9.87866" x2="5.46025" y2="20.2524" gradientUnits="userSpaceOnUse">
<stop stop-color="#EC796B"/>
<stop offset="1" stop-color="#E175B1"/>
</linearGradient>
<linearGradient id="paint2_linear_2123_5634" x1="22.2844" y1="18.7184" x2="19.2452" y2="19.0396" gradientUnits="userSpaceOnUse">
<stop stop-color="#EC796B"/>
<stop offset="1" stop-color="#E175B1"/>
</linearGradient>
</defs>
</svg>
