<svg width="26" height="28" viewBox="0 0 26 28" fill="none" xmlns="http://www.w3.org/2000/svg">
<path d="M15.768 9.51L10.548 0.93C10.208 0.35 9.59801 0 8.92801 0H2.33801C0.888013 0 -0.0219871 1.56 0.688013 2.82C2.00765 5.15472 3.87016 7.13729 6.11801 8.6C6.87801 9.19 7.81801 9.51 8.78801 9.51H15.768Z" fill="#0074BA"/>
<path d="M23.658 0H17.068C16.398 0 15.788 0.35 15.448 0.93L10.228 9.51H17.218C18.188 9.51 19.118 9.19 19.888 8.6C22.138 7.14 23.998 5.16 25.318 2.82C26.018 1.56 25.108 0 23.658 0Z" fill="#00A6ED"/>
<path d="M12.99 28C18.535 28 23.03 23.393 23.03 17.71C23.03 12.027 18.535 7.41998 12.99 7.41998C7.44501 7.41998 2.95001 12.027 2.95001 17.71C2.95001 23.393 7.44501 28 12.99 28Z" fill="#D3883E"/>
<path d="M13 26.76C10.64 26.76 8.42002 25.82 6.76002 24.11C5.0895 22.3997 4.15913 20.1007 4.17002 17.71C4.17002 15.29 5.09002 13.02 6.76002 11.31C7.57031 10.4726 8.54073 9.80671 9.61358 9.35195C10.6864 8.89719 11.8398 8.66284 13.005 8.66284C14.1703 8.66284 15.3236 8.89719 16.3965 9.35195C17.4693 9.80671 18.4397 10.4726 19.25 11.31C22.69 14.84 22.69 20.58 19.25 24.11C17.57 25.82 15.35 26.76 13 26.76ZM12.99 9.88999C11.04 9.88999 9.08002 10.65 7.60002 12.18C6.16013 13.6595 5.35925 15.6455 5.37002 17.71C5.37002 19.8 6.16002 21.76 7.60002 23.24C8.29821 23.9646 9.13544 24.5409 10.0616 24.9344C10.9877 25.3279 11.9837 25.5305 12.99 25.53C15.03 25.53 16.94 24.72 18.38 23.24C21.35 20.19 21.35 15.23 18.38 12.18C17.6825 11.4544 16.8454 10.8775 15.9191 10.484C14.9928 10.0904 13.9965 9.88837 12.99 9.88999Z" fill="#F3AD61"/>
<path d="M14.402 16.275L15.45 14.465C15.5355 14.3164 15.5804 14.1479 15.5804 13.9765C15.5804 13.8051 15.5355 13.6366 15.45 13.488C15.3649 13.3394 15.242 13.216 15.0938 13.1303C14.9455 13.0446 14.7773 12.9996 14.606 13H11.514C11.2604 13.0081 11.02 13.1146 10.8435 13.2968C10.667 13.479 10.5683 13.7228 10.5683 13.9765C10.5683 14.2302 10.667 14.474 10.8435 14.6562C11.02 14.8384 11.2604 14.9449 11.514 14.953H12.917L12.165 16.264C12.0275 16.4338 11.952 16.6455 11.951 16.864C11.951 17.404 12.389 17.841 12.928 17.841C13.538 17.841 14.036 18.339 14.036 18.949C14.036 19.559 13.538 20.058 12.928 20.058C12.46 20.058 12.043 19.763 11.89 19.325C11.8029 19.083 11.6238 18.8852 11.3915 18.7747C11.1593 18.6642 10.8927 18.6499 10.65 18.735C10.5293 18.7771 10.4182 18.8427 10.3231 18.9281C10.228 19.0135 10.1507 19.1169 10.0959 19.2323C10.041 19.3477 10.0096 19.4729 10.0034 19.6006C9.99726 19.7282 10.0165 19.8558 10.06 19.976C10.2726 20.5669 10.6619 21.0781 11.1749 21.4401C11.688 21.8022 12.3001 21.9977 12.928 22C13.7367 21.9992 14.512 21.6776 15.0838 21.1058C15.6556 20.534 15.9772 19.7587 15.978 18.95C15.9768 18.4043 15.8301 17.8688 15.5531 17.3986C15.2761 16.9284 14.8788 16.5406 14.402 16.275Z" fill="#402A32"/>
</svg>
