<svg width="32" height="32" viewBox="0 0 32 32" fill="none" xmlns="http://www.w3.org/2000/svg">
<path d="M18.768 11.51L13.548 2.93C13.208 2.35 12.598 2 11.928 2H5.33801C3.88801 2 2.97801 3.56 3.68801 4.82C5.00765 7.15472 6.87016 9.13729 9.11801 10.6C9.87801 11.19 10.818 11.51 11.788 11.51H18.768Z" fill="#0074BA"/>
<path d="M26.658 2H20.068C19.398 2 18.788 2.35 18.448 2.93L13.228 11.51H20.218C21.188 11.51 22.118 11.19 22.888 10.6C25.138 9.14 26.998 7.16 28.318 4.82C29.018 3.56 28.108 2 26.658 2Z" fill="#00A6ED"/>
<path d="M15.99 30C21.535 30 26.03 25.393 26.03 19.71C26.03 14.027 21.535 9.42001 15.99 9.42001C10.445 9.42001 5.95001 14.027 5.95001 19.71C5.95001 25.393 10.445 30 15.99 30Z" fill="#FFB02E"/>
<path d="M14.076 16.041C14.076 15.7758 14.1814 15.5214 14.3689 15.3339C14.5564 15.1464 14.8108 15.041 15.076 15.041H16C16.2652 15.041 16.5196 15.1464 16.7071 15.3339C16.8947 15.5214 17 15.7758 17 16.041V23C17 23.2652 16.8947 23.5196 16.7071 23.7071C16.5196 23.8947 16.2652 24 16 24C15.7348 24 15.4804 23.8947 15.2929 23.7071C15.1054 23.5196 15 23.2652 15 23V17.038C14.7487 17.0189 14.5139 16.9055 14.3426 16.7207C14.1712 16.5358 14.076 16.2931 14.076 16.041Z" fill="#6D4534"/>
<path d="M16 28.76C13.64 28.76 11.42 27.82 9.76002 26.11C8.0895 24.3997 7.15913 22.1007 7.17002 19.71C7.17002 17.29 8.09002 15.02 9.76002 13.31C10.5703 12.4726 11.5407 11.8067 12.6136 11.352C13.6864 10.8972 14.8398 10.6628 16.005 10.6628C17.1703 10.6628 18.3236 10.8972 19.3965 11.352C20.4693 11.8067 21.4397 12.4726 22.25 13.31C25.69 16.84 25.69 22.58 22.25 26.11C20.57 27.82 18.35 28.76 16 28.76ZM15.99 11.89C14.04 11.89 12.08 12.65 10.6 14.18C9.16013 15.6595 8.35925 17.6455 8.37002 19.71C8.37002 21.8 9.16002 23.76 10.6 25.24C11.2982 25.9646 12.1354 26.5409 13.0616 26.9344C13.9877 27.3279 14.9837 27.5305 15.99 27.53C18.03 27.53 19.94 26.72 21.38 25.24C24.35 22.19 24.35 17.23 21.38 14.18C20.6825 13.4544 19.8454 12.8775 18.9191 12.484C17.9928 12.0904 16.9965 11.8884 15.99 11.89Z" fill="#FCD53F"/>
</svg>
